<?xml version="1.0" standalone="no"?>
<!DOCTYPE svg PUBLIC "-//W3C//DTD SVG 20010904//EN"
 "http://www.w3.org/TR/2001/REC-SVG-20010904/DTD/svg10.dtd">
<svg version="1.0" xmlns="http://www.w3.org/2000/svg"
 width="1254.000000pt" height="1254.000000pt" viewBox="0 0 1254.000000 1254.000000"
 preserveAspectRatio="xMidYMid meet">

<g transform="translate(0.000000,1254.000000) scale(0.100000,-0.100000)"
fill="#000000" stroke="none">
<path d="M0 6270 l0 -6270 6270 0 6270 0 0 6270 0 6270 -6270 0 -6270 0 0
-6270z m6435 4770 c549 -57 1092 -216 1554 -457 190 -99 169 -96 -37 6 -477
234 -927 364 -1497 433 -147 17 -722 17 -870 0 -949 -111 -1742 -448 -2450
-1042 -404 -339 -792 -818 -1057 -1306 -274 -504 -459 -1072 -532 -1634 -62
-469 -45 -1011 45 -1465 86 -435 210 -803 399 -1190 80 -162 113 -224 204
-377 15 -27 25 -48 22 -48 -23 0 -277 489 -365 705 -165 402 -285 871 -330
1285 -95 883 69 1780 471 2584 742 1483 2155 2417 3813 2520 101 6 524 -3 630
-14z m1765 -576 c0 -2 -13 2 -30 11 -16 9 -30 18 -30 21 0 2 14 -2 30 -11 17
-9 30 -18 30 -21z m50 -30 c0 -2 -9 0 -20 6 -11 6 -20 13 -20 16 0 2 9 0 20
-6 11 -6 20 -13 20 -16z m-3890 -24 c-8 -5 -19 -10 -25 -10 -5 0 -3 5 5 10 8
5 20 10 25 10 6 0 3 -5 -5 -10z m-90 -40 c-19 -11 -39 -19 -45 -19 -5 0 6 8
25 19 19 11 40 19 45 19 6 0 -6 -8 -25 -19z m-140 -65 c0 -3 -31 -21 -70 -40
-38 -19 -70 -33 -70 -30 0 4 126 72 138 75 1 0 2 -2 2 -5z m-150 -80 c0 -2
-13 -11 -30 -20 -38 -19 -40 -11 -2 9 31 17 32 18 32 11z m-75 -43 c-18 -15
-85 -54 -85 -48 0 3 19 16 43 30 43 26 59 33 42 18z m1528 -56 c203 -39 380
-166 464 -331 14 -27 35 -74 47 -105 l21 -55 3 -2690 c2 -1917 0 -2714 -8
-2775 -46 -349 -353 -614 -704 -608 l-91 1 115 7 c184 11 317 64 435 172 106
97 186 236 220 380 16 69 20 416 6 498 -5 25 -9 37 -10 27 -1 -12 -5 -15 -13
-10 -22 13 -38 12 -38 -4 0 -12 -3 -13 -15 -3 -12 10 -16 6 -24 -22 -7 -24
-10 17 -12 162 -2 145 -5 96 -9 -195 -5 -336 -8 -397 -24 -443 -9 -30 -19 -52
-21 -50 -2 2 3 26 13 53 16 46 17 167 17 1680 1 897 -2 2053 -5 2570 -3 560
-7 819 -10 640 -4 -270 -5 -330 -9 -429 -2 -52 -12 -21 -16 50 -2 38 -4 70 -5
72 0 1 0 4 0 7 0 3 -7 21 -15 41 -8 20 -15 50 -15 66 0 17 -4 27 -10 23 -5 -3
-10 3 -10 13 0 11 -7 25 -15 32 -8 7 -12 17 -8 23 4 7 -1 8 -13 4 -18 -7 -18
-6 1 9 20 16 20 16 -3 11 -15 -4 -25 1 -32 14 -7 13 -7 19 0 19 5 0 10 7 10
16 0 9 5 12 13 8 10 -6 10 -4 0 7 -16 16 -17 33 -1 23 7 -4 8 -3 4 5 -4 6 -11
9 -14 7 -4 -2 -19 5 -32 16 -16 13 -19 18 -7 14 9 -3 17 -1 17 4 0 5 -8 11
-17 13 -14 4 -12 5 5 6 12 0 22 -4 22 -11 0 -6 3 -9 6 -5 3 3 -1 16 -10 29 -9
12 -16 17 -16 10 0 -6 -7 -12 -15 -12 -8 0 -15 -4 -15 -10 0 -5 -5 -10 -11
-10 -6 0 -1 14 11 30 12 17 17 30 12 30 -5 0 -8 11 -7 25 2 14 -2 26 -8 26 -7
1 -19 2 -27 3 -8 0 -15 8 -15 16 0 9 -10 29 -23 45 -13 17 -20 35 -16 47 3 11
0 20 -11 24 -9 4 -14 13 -11 20 3 8 1 14 -4 14 -5 0 -7 7 -3 16 5 14 3 15 -12
6 -14 -7 -22 -6 -32 3 -7 7 -17 15 -23 17 -6 2 -12 18 -14 35 -3 18 -7 37 -11
43 -10 16 -25 11 -18 -6 4 -12 2 -15 -8 -12 -8 3 -13 11 -11 17 2 10 -5 13
-24 10 -4 0 -10 4 -14 11 -5 8 -14 8 -34 0 -34 -13 -59 -13 -51 -1 3 5 1 12
-5 16 -5 3 -10 1 -10 -6 0 -8 -4 -8 -15 1 -12 10 -18 10 -30 0 -11 -9 -15 -9
-15 -1 0 9 -5 9 -20 1 -17 -9 -18 -15 -10 -33 10 -20 10 -20 -3 -4 -18 22 -29
22 -44 -2 -9 -14 -22 -18 -53 -16 -34 2 -44 -1 -47 -15 -3 -10 -13 -20 -23
-23 -12 -3 -17 0 -14 7 3 8 -4 12 -18 11 -13 -1 -22 -8 -20 -15 2 -7 -3 -10
-12 -7 -8 3 -17 -1 -20 -9 -3 -8 -10 -14 -16 -14 -6 0 -8 5 -4 11 4 7 -1 9
-12 7 -11 -2 -19 -10 -18 -18 1 -9 -9 -16 -24 -17 -18 -1 -21 1 -11 8 8 5 9 9
3 9 -6 0 -17 -7 -24 -15 -7 -8 -16 -12 -21 -9 -5 3 -9 -2 -9 -10 0 -8 -9 -17
-19 -21 -29 -9 -71 -55 -71 -79 -1 -19 -1 -20 -11 -3 -6 10 -17 46 -25 80
l-14 62 5 -65 c4 -40 16 -86 31 -118 17 -35 24 -61 20 -78 -17 -68 -97 -87
-146 -34 -33 35 -68 107 -81 164 l-8 41 4 -45 c2 -25 7 -55 10 -65 4 -12 3
-15 -2 -9 -11 16 -59 9 -79 -10 -8 -9 -20 -14 -25 -11 -5 4 -9 1 -9 -5 0 -6
-4 -8 -10 -5 -5 3 -10 -1 -10 -9 0 -8 -9 -17 -19 -21 -11 -3 -22 -13 -25 -21
-3 -8 -11 -12 -17 -9 -6 4 -13 -2 -16 -14 -3 -12 -13 -21 -23 -21 -10 0 -24
-8 -31 -17 -12 -14 -12 -15 -1 -9 12 7 12 4 2 -14 -6 -12 -14 -19 -17 -16 -9
9 -44 -25 -37 -35 3 -5 0 -9 -5 -9 -6 0 -10 -3 -8 -8 1 -4 -13 -21 -30 -38
-18 -17 -33 -37 -33 -43 0 -7 -4 -9 -10 -6 -10 6 -14 -7 -11 -32 1 -7 -5 -13
-14 -13 -9 0 -14 -4 -11 -9 6 -9 -48 -76 -116 -144 -37 -37 -48 -55 -28 -42 6
3 7 -1 4 -9 -3 -9 -10 -16 -14 -16 -12 0 -22 97 -16 159 l5 56 -10 -45 c-14
-62 -5 -164 21 -232 14 -38 42 -80 82 -124 53 -59 59 -70 54 -98 -8 -39 -33
-64 -71 -72 -46 -9 -119 45 -174 128 l-44 67 -47 -24 c-142 -72 -297 -240
-380 -410 -104 -214 -121 -421 -53 -627 21 -63 32 -82 54 -93 15 -8 56 -46 91
-85 35 -38 83 -85 108 -104 65 -50 178 -104 254 -121 80 -19 224 -21 289 -4
56 14 87 4 113 -36 20 -31 12 -84 -16 -110 -42 -38 -243 -57 -378 -35 -162 27
-354 130 -466 251 l-58 62 -49 -49 c-99 -96 -176 -241 -216 -400 -24 -100 -22
-295 5 -395 47 -174 154 -328 277 -400 28 -16 45 -29 39 -29 -27 0 -139 87
-185 144 -27 33 -70 101 -94 151 -25 49 -45 83 -45 75 0 -12 -2 -13 -9 -1 -6
9 -8 5 -8 -14 0 -15 -7 -31 -14 -36 -7 -4 -10 -11 -7 -15 4 -4 3 -15 -3 -25
-7 -15 -14 -16 -33 -9 -23 8 -24 7 -16 -18 13 -44 90 -173 145 -242 69 -87 75
-99 64 -128 -50 -130 -59 -381 -21 -527 45 -167 164 -356 283 -451 102 -81
129 -97 223 -135 50 -19 92 -42 94 -50 2 -9 1 -10 -5 -3 -4 7 -45 26 -89 43
-416 160 -648 651 -513 1086 l20 67 -49 56 c-154 179 -239 378 -257 603 -22
270 85 574 272 770 l54 56 -30 89 c-126 380 8 834 334 1126 55 50 185 137 232
157 l30 12 6 107 c21 407 319 748 717 819 47 9 90 17 97 19 6 1 21 23 32 48
111 253 392 469 668 516 79 13 216 11 296 -4z m-1638 -12 c-26 -20 -55 -36
-55 -30 0 5 63 46 70 46 3 -1 -4 -8 -15 -16z m-65 -39 c0 -2 -28 -23 -62 -46
-101 -68 -292 -216 -391 -302 -849 -739 -1378 -1810 -1468 -2970 -14 -193 -7
-610 15 -787 69 -547 216 -1041 452 -1512 24 -49 42 -88 39 -88 -8 0 -112 213
-175 361 -256 596 -390 1335 -351 1932 55 847 297 1564 766 2265 139 208 282
380 495 593 228 229 393 368 604 510 75 51 76 52 76 44z m3205 -381 c48 -25
101 -98 110 -154 15 -89 -39 -196 -120 -234 l-35 -17 0 -317 0 -316 -245 -246
-245 -246 -1 -789 c-1 -435 -5 -821 -9 -860 l-7 -70 -3 70 c-1 39 -5 60 -7 48
-5 -27 -29 -21 -57 14 -10 13 -21 21 -24 18 -4 -3 -9 -43 -13 -88 -3 -45 -7
321 -7 813 l-2 894 246 247 247 247 2 283 c2 155 1 288 -2 295 -3 8 -11 14
-18 14 -7 0 -33 18 -58 41 -114 100 -94 273 40 352 41 24 57 28 108 25 35 -2
77 -12 100 -24z m4155 -46 c0 -13 11 -142 25 -288 89 -966 122 -1350 117
-1350 -2 0 -16 8 -30 19 -15 10 -120 77 -233 148 l-206 130 -87 -220 c-366
-925 -835 -1688 -1524 -2477 -166 -189 -576 -605 -772 -783 -606 -549 -1245
-1012 -1895 -1374 -176 -98 -557 -293 -572 -293 -5 0 91 51 212 114 269 138
360 188 585 324 215 129 304 188 293 194 -4 3 -3 4 3 2 14 -3 66 30 59 38 -3
2 1 5 8 5 15 0 107 60 107 70 0 3 -12 -2 -26 -12 -24 -16 -26 -16 -40 2 -7 10
-16 26 -19 36 -4 9 -12 17 -18 17 -7 0 -6 4 3 10 12 8 10 10 -8 10 -16 0 -21
4 -16 13 6 9 4 9 -8 -1 -13 -10 -17 -10 -20 0 -4 10 -8 10 -21 -1 -9 -7 -24
-11 -32 -7 -10 3 -67 -31 -153 -93 -113 -81 -284 -193 -572 -376 -86 -54 -220
-128 -220 -121 0 2 26 19 58 37 182 104 553 349 802 529 1002 728 1863 1603
2463 2503 388 583 723 1284 916 1920 23 73 41 135 41 138 0 3 -124 45 -275 94
-151 50 -275 93 -275 96 0 7 225 174 725 537 193 140 404 295 470 343 66 48
123 88 128 89 4 0 7 -10 7 -22z m-5862 -255 c-10 -2 -26 -2 -35 0 -10 3 -2 5
17 5 19 0 27 -2 18 -5z m50 -49 c24 -28 29 -79 9 -105 -7 -8 -37 -32 -68 -52
-132 -87 -211 -284 -180 -452 28 -153 123 -272 276 -345 63 -30 89 -48 105
-75 38 -62 8 -121 -70 -135 -31 -6 -46 -4 -63 10 -12 9 -56 36 -97 59 -101 57
-153 102 -211 180 -127 172 -160 415 -84 617 43 113 127 227 213 286 78 54
129 58 170 12z m49 -66 c-3 -8 -6 -5 -6 6 -1 11 2 17 5 13 3 -3 4 -12 1 -19z
m161 -3 c-3 -3 -9 2 -12 12 -6 14 -5 15 5 6 7 -7 10 -15 7 -18z m42 -30 c7 -9
8 -15 2 -15 -5 0 -12 7 -16 15 -3 8 -4 15 -2 15 2 0 9 -7 16 -15z m2192 -120
c61 -41 92 -96 96 -175 3 -53 0 -75 -17 -107 -23 -45 -72 -91 -113 -105 l-28
-10 0 -281 0 -280 -137 -139 c-133 -134 -138 -138 -179 -138 -41 0 -43 -2 -73
-54 -43 -77 -102 -111 -194 -112 l-69 -1 -129 -129 -129 -129 0 -465 0 -465
-195 -195 c-129 -130 -202 -196 -218 -198 -27 -3 -67 37 -67 67 0 9 81 97 180
196 l180 180 0 465 0 465 140 142 139 142 -19 43 c-39 86 -21 180 49 249 58
59 109 75 185 59 59 -12 126 -61 152 -111 26 -51 49 -39 161 79 l102 107 1
250 0 250 -40 23 c-104 59 -139 198 -77 306 57 101 202 135 299 71z m-3194
-625 c125 -21 216 -80 288 -187 21 -32 47 -69 59 -83 15 -18 15 -21 3 -11 -16
12 -18 11 -18 -6 0 -36 -38 -73 -75 -73 -37 0 -55 14 -108 82 -74 93 -216 132
-327 89 -88 -34 -128 -25 -150 34 -26 69 29 123 154 150 77 17 96 17 174 5z
m-848 -85 c0 -14 -17 -20 -48 -16 -7 1 -15 -5 -18 -13 -3 -9 -11 -13 -17 -9
-6 4 -8 0 -4 -10 3 -9 2 -17 -3 -19 -5 -2 -10 -10 -12 -18 -2 -8 -15 -21 -30
-29 -15 -7 -25 -17 -22 -22 3 -5 -4 -9 -16 -9 -12 0 -18 -4 -15 -10 3 -5 2
-10 -2 -10 -5 0 -19 -18 -33 -40 -14 -22 -27 -40 -30 -40 -8 0 -64 -55 -80
-80 -8 -12 -21 -28 -27 -36 -7 -7 -13 -17 -13 -22 0 -5 -6 -15 -14 -22 -8 -6
-13 -17 -10 -25 3 -8 -4 -16 -16 -20 -15 -5 -19 -12 -15 -23 3 -9 3 -13 -2 -8
-4 4 -16 -10 -26 -31 -15 -34 -17 -35 -11 -8 9 46 69 169 119 245 54 81 211
234 232 226 8 -3 12 -2 9 3 -5 7 79 60 97 61 4 0 7 -7 7 -15z m4505 -300 c-4
-24 -112 -137 -510 -535 l-505 -505 0 -345 0 -344 -380 -381 -380 -380 0 -518
0 -517 45 0 c173 0 259 -215 137 -343 -29 -31 -73 -57 -94 -57 -7 1 3 8 22 16
67 29 107 89 116 172 11 97 -69 190 -173 201 l-58 6 -5 290 c-3 160 -6 264 -8
233 -2 -45 -5 -56 -16 -52 -11 4 -17 -5 -22 -31 -4 -23 -13 -39 -24 -42 -18
-5 -20 -39 -30 -410 0 -29 -10 -74 -22 -99 -16 -38 -19 -60 -15 -108 4 -45 3
-56 -5 -42 -14 26 -5 124 15 165 15 31 17 88 17 610 l0 576 380 382 380 382 0
348 0 348 505 504 505 504 0 83 c0 45 5 86 10 89 6 4 10 -10 10 -34 0 -32 4
-41 18 -41 9 0 26 -7 36 -15 10 -8 23 -12 27 -9 5 3 10 44 11 92 1 85 1 85 9
-38 5 -69 6 -139 4 -155z m-3185 8 c0 -8 -38 17 -51 33 -9 11 -2 9 19 -6 17
-13 32 -25 32 -27z m414 -73 c19 -30 37 -66 40 -80 4 -14 -10 7 -31 45 -21 39
-51 88 -67 110 -26 37 -26 38 -2 10 15 -16 42 -55 60 -85z m-268 -12 c23 -16
52 -44 64 -61 18 -24 10 -20 -31 18 -30 28 -65 58 -79 68 -14 10 -18 15 -10
11 8 -4 34 -20 56 -36z m114 -142 c0 -12 -5 -7 -19 24 -11 24 -11 24 3 6 9
-11 16 -24 16 -30z m-2053 -58 c-3 -8 -6 -5 -6 6 -1 11 2 17 5 13 3 -3 4 -12
1 -19z m2280 -15 c-3 -10 -5 -4 -5 12 0 17 2 24 5 18 2 -7 2 -21 0 -30z
m-1172 -3 c295 -92 502 -342 530 -642 l7 -77 32 7 c60 14 219 7 269 -11 94
-34 153 -71 223 -141 111 -111 164 -235 164 -386 0 -120 -51 -274 -99 -300
-31 -16 -79 -12 -101 10 -34 34 -35 66 -4 128 26 52 29 67 29 157 0 89 -3 106
-28 157 -36 74 -105 141 -186 181 -60 29 -74 32 -161 32 -99 -1 -129 -10 -222
-67 -35 -22 -38 -22 -71 -6 -49 24 -63 63 -44 125 26 79 29 133 13 218 -37
191 -177 359 -354 425 -141 53 -280 49 -409 -11 -72 -33 -99 -33 -133 3 -24
26 -26 68 -5 108 21 41 148 96 260 114 66 10 221 -3 290 -24z m4175 -44 c31
-15 54 -37 75 -71 26 -42 30 -58 30 -120 0 -61 -4 -77 -28 -113 -15 -23 -46
-54 -69 -69 -36 -24 -52 -28 -113 -28 -62 0 -77 4 -114 28 l-43 29 -98 -96
-97 -96 -171 0 c-165 0 -171 1 -186 22 -21 29 -20 51 2 76 15 19 30 21 159 24
l143 2 94 96 c86 87 94 99 100 143 10 78 51 143 111 175 71 37 130 36 205 -2z
m-2993 -78 c-2 -18 -4 -4 -4 32 0 36 2 50 4 33 2 -18 2 -48 0 -65z m-210 -70
c-3 -8 -6 -5 -6 6 -1 11 2 17 5 13 3 -3 4 -12 1 -19z m200 -20 c-3 -8 -6 -5
-6 6 -1 11 2 17 5 13 3 -3 4 -12 1 -19z m-37 -126 c0 -5 -7 -17 -15 -28 -14
-18 -14 -17 -4 9 12 27 19 34 19 19z m-37 -67 c-3 -9 -8 -14 -10 -11 -3 3 -2
9 2 15 9 16 15 13 8 -4z m3300 -396 c83 -23 147 -111 147 -204 0 -123 -92
-215 -215 -215 -89 0 -161 48 -194 129 l-13 31 -421 0 -421 0 -33 -32 -33 -32
0 -243 0 -243 113 0 112 1 27 44 c14 24 46 56 69 72 37 24 52 28 115 28 64 0
77 -3 116 -30 85 -59 120 -180 79 -270 -19 -43 -78 -100 -118 -116 -42 -16
-131 -11 -172 10 -45 23 -98 81 -107 116 l-6 25 -162 0 -161 0 -307 -307 -308
-308 0 -236 c0 -226 1 -237 19 -242 32 -8 61 -66 61 -120 0 -40 -5 -53 -33
-84 -29 -31 -41 -37 -89 -41 -70 -5 -111 15 -138 68 -33 65 -21 124 35 168
l25 20 0 257 0 257 117 121 c64 67 224 230 355 362 l238 240 0 250 0 249 67
68 67 68 448 0 447 0 17 35 c43 91 149 134 257 104z m2325 -1786 c-1 -1088 -4
-1617 -9 -1363 -3 228 -8 528 -10 665 -3 210 -4 224 -6 92 -3 -144 -5 -157
-19 -142 -13 12 -19 13 -30 4 -8 -6 -14 -8 -14 -4 0 4 -6 3 -12 -2 -16 -13
-48 -13 -48 -1 0 5 -4 7 -9 3 -5 -3 -13 0 -16 5 -5 8 -14 5 -27 -7 -17 -14
-22 -15 -26 -4 -4 11 -6 11 -13 0 -6 -10 -9 -11 -9 -1 0 6 -8 12 -17 11 -11 0
-13 -3 -5 -6 6 -2 12 -11 12 -19 0 -16 -26 -19 -35 -4 -8 13 -25 13 -25 -1 0
-5 6 -7 13 -3 8 5 7 2 -2 -10 -10 -12 -16 -14 -21 -5 -5 8 -10 8 -14 1 -4 -6
-13 -9 -21 -6 -8 3 -29 -1 -46 -10 -48 -24 -74 -19 -51 10 4 5 0 2 -9 -7 -11
-12 -20 -14 -32 -7 -13 7 -17 6 -15 -4 2 -8 -5 -12 -21 -10 -17 3 -21 0 -15
-10 6 -10 3 -9 -10 1 -15 13 -19 13 -27 0 -6 -11 -9 -8 -9 11 0 14 -5 32 -10
40 -6 10 -10 -80 -11 -265 -1 -154 -4 -419 -8 -590 -5 -258 -7 -165 -13 545
-4 470 -5 1154 -2 1520 l4 665 97 106 c219 238 537 579 540 579 2 0 2 -800 1
-1777z m-6646 1130 c182 -72 318 -214 391 -407 28 -75 31 -91 31 -212 l1 -132
70 -7 c343 -34 604 -326 605 -678 0 -95 -23 -212 -56 -280 -13 -29 -21 -43
-18 -32 50 149 56 183 55 290 0 61 -5 124 -10 140 l-9 30 -1 -29 c-1 -20 -5
-27 -16 -23 -8 4 -17 3 -19 -2 -3 -4 -21 -8 -40 -9 -25 -1 -36 3 -38 15 -2 9
-3 -40 -4 -108 0 -71 -5 -135 -12 -149 -10 -22 -11 -20 -5 15 25 141 -5 302
-75 410 -100 154 -241 231 -441 240 -115 5 -144 17 -170 69 -11 24 -11 36 3
85 79 282 -112 586 -399 633 -175 29 -349 -62 -423 -220 -22 -46 -27 -73 -28
-138 -1 -45 -5 -91 -8 -102 -11 -33 -198 -113 -260 -111 -12 0 11 8 49 19 84
22 176 62 194 84 9 11 11 35 6 93 -8 84 -17 105 -42 96 -10 -4 -14 -2 -10 4 4
7 -6 17 -23 24 -16 8 -31 20 -33 29 -2 8 -7 -7 -11 -35 -15 -110 -19 -119 -60
-139 -27 -13 -66 -20 -120 -22 l-81 -3 65 8 c66 8 93 14 143 33 23 9 27 16 27
49 0 125 55 247 159 349 125 124 225 162 416 157 106 -3 129 -7 197 -34z
m-1217 -743 c-7 -25 -14 -38 -14 -29 -1 18 20 82 25 77 2 -2 -3 -24 -11 -48z
m122 44 c-3 -3 -12 -4 -19 -1 -8 3 -5 6 6 6 11 1 17 -2 13 -5z m61 -11 c-10
-2 -26 -2 -35 0 -10 3 -2 5 17 5 19 0 27 -2 18 -5z m100 -10 c-16 -2 -40 -2
-55 0 -16 2 -3 4 27 4 30 0 43 -2 28 -4z m-301 -105 c-3 -7 -5 -2 -5 12 0 14
2 19 5 13 2 -7 2 -19 0 -25z m4355 10 c65 -19 125 -80 144 -146 25 -83 7 -150
-55 -212 -147 -147 -382 -32 -357 174 8 62 31 103 80 142 63 51 119 63 188 42z
m2451 -1828 l-8 -675 -6 390 c-12 745 -11 714 -20 661 -4 -26 -9 -65 -11 -85
-4 -54 -18 -63 -101 -63 -95 0 -99 0 -91 13 4 7 -2 7 -17 -1 -13 -7 -21 -9
-17 -5 9 9 -14 34 -27 29 -5 -2 -22 7 -37 21 -16 14 -28 21 -28 15 0 -6 7 -13
15 -16 8 -4 13 -10 10 -15 -3 -4 -12 -6 -20 -2 -8 3 -15 0 -15 -6 0 -6 -8 -11
-18 -11 -10 0 -24 -6 -31 -12 -11 -10 -13 -10 -7 0 4 6 2 12 -3 12 -6 0 -11
-6 -11 -12 0 -9 -4 -8 -10 2 -8 12 -10 12 -10 1 0 -11 -3 -11 -17 0 -11 10
-14 10 -9 2 4 -7 2 -13 -3 -13 -6 0 -11 7 -11 15 0 8 -4 15 -9 15 -5 0 -14 -7
-21 -15 -15 -18 -37 -19 -43 -2 -3 6 -6 3 -7 -8 -4 -42 -18 29 -21 105 -4 118
-16 -355 -19 -790 -3 -321 -5 -366 -10 -240 -4 85 -8 548 -9 1027 l-2 873 58
53 c173 160 333 307 453 419 l135 126 3 -567 c2 -311 0 -870 -5 -1241z m-6816
1753 c-3 -10 -5 -4 -5 12 0 17 2 24 5 18 2 -7 2 -21 0 -30z m1014 -26 c25 -19
41 -56 33 -80 -4 -12 -24 -41 -45 -64 -53 -58 -80 -116 -89 -192 -7 -59 -8
-61 -9 -20 -2 67 24 141 69 197 21 28 36 53 32 58 -4 4 -2 4 4 1 12 -7 24 13
24 41 0 27 -31 52 -67 52 -61 0 -147 -106 -190 -234 -13 -40 -13 -40 -8 -6 9
60 61 156 112 209 41 42 55 51 84 51 19 0 41 -6 50 -13z m-21 -32 c-15 -18
-60 -16 -60 2 0 8 13 13 36 13 31 0 35 -2 24 -15z m20 -26 c0 -6 -4 -7 -10 -4
-5 3 -10 11 -10 16 0 6 5 7 10 4 6 -3 10 -11 10 -16z m-1003 -111 c-3 -8 -6
-5 -6 6 -1 11 2 17 5 13 3 -3 4 -12 1 -19z m750 -185 c-2 -16 -4 -5 -4 22 0
28 2 40 4 28 2 -13 2 -35 0 -50z m0 -55 c-3 -8 -6 -5 -6 6 -1 11 2 17 5 13 3
-3 4 -12 1 -19z m2483 -25 c0 -21 -3 -24 -9 -14 -5 8 -7 20 -4 28 8 21 13 15
13 -14z m-2473 -35 c-3 -8 -6 -5 -6 6 -1 11 2 17 5 13 3 -3 4 -12 1 -19z m976
-99 c41 -50 8 -113 -75 -143 -25 -9 -68 -36 -95 -58 l-48 -42 40 43 c39 42
101 81 128 81 43 0 68 90 32 116 -72 53 -269 -63 -341 -200 -16 -30 -30 -53
-32 -51 -6 6 40 89 70 128 99 125 267 191 321 126z m-13 -17 c0 -4 -10 -9 -22
-9 -18 -2 -20 0 -8 7 18 12 30 13 30 2z m-1253 -359 c-3 -10 -5 -4 -5 12 0 17
2 24 5 18 2 -7 2 -21 0 -30z m2873 -18 c59 -30 77 -97 44 -155 -22 -36 -78
-63 -115 -55 -28 6 -79 50 -79 68 0 5 9 -2 20 -16 30 -38 81 -52 119 -32 32
16 61 61 61 94 0 54 -49 101 -104 101 -38 0 -87 -49 -96 -96 l-8 -39 -1 39
c-1 31 5 44 33 72 38 38 77 44 126 19z m-2852 -65 c0 -9 -3 -7 -8 5 -5 11 -8
29 -8 40 0 16 2 15 8 -5 4 -14 8 -32 8 -40z m7026 -2 c-3 -4 -9 -8 -15 -8 -5
0 -9 4 -9 8 0 5 7 9 15 9 8 0 12 -4 9 -9z m43 -4 c-3 -3 -12 -4 -19 -1 -8 3
-5 6 6 6 11 1 17 -2 13 -5z m-1829 -736 l-1 -723 -8 448 c-4 247 -10 451 -13
454 -3 4 -6 -19 -6 -49 0 -51 -2 -56 -22 -56 -61 1 -220 -22 -233 -32 -6 -5
-24 -7 -42 -6 -17 1 -30 -2 -27 -6 8 -13 -10 -9 -31 6 -16 12 -22 12 -40 0
-12 -8 -25 -11 -28 -7 -4 3 -7 1 -7 -6 0 -6 -6 -11 -12 -10 -32 4 -69 -2 -63
-10 3 -5 1 -13 -5 -16 -6 -4 -10 -3 -9 2 3 20 -2 27 -10 14 -15 -24 -41 5 -43
48 -4 76 -15 -309 -19 -624 -3 -319 -4 -313 -9 190 -3 286 -4 549 -2 585 3 64
4 66 45 94 99 70 409 295 492 357 50 37 91 68 93 68 1 1 1 -324 0 -721z
m-5208 657 c0 -5 -5 -3 -10 5 -5 8 -10 20 -10 25 0 6 5 3 10 -5 5 -8 10 -19
10 -25z m-1296 -72 c30 -54 67 -117 81 -140 14 -24 24 -43 21 -43 -5 0 -123
194 -150 248 -34 67 -6 28 48 -65z m1320 21 c3 -8 2 -12 -4 -9 -6 3 -10 10
-10 16 0 14 7 11 14 -7z m2676 -78 c19 -8 29 -15 22 -16 -28 0 -83 33 -104 64
l-21 31 34 -32 c19 -18 50 -39 69 -47z m-2641 18 c12 -19 16 -32 11 -29 -11 7
-43 65 -36 65 2 0 13 -16 25 -36z m2729 -41 c-10 -2 -26 -2 -35 0 -10 3 -2 5
17 5 19 0 27 -2 18 -5z m-2687 -20 c13 -16 12 -17 -3 -4 -17 13 -22 21 -14 21
2 0 10 -8 17 -17z m55 -65 l29 -33 -32 29 c-31 28 -38 36 -30 36 2 0 16 -15
33 -32z m-1278 -118 c480 -722 1205 -1318 2037 -1678 826 -357 1714 -495 2676
-416 584 48 1181 188 1746 410 135 53 362 160 435 204 155 96 -45 -54 -242
-181 -571 -367 -1167 -586 -1875 -688 -257 -37 -393 -46 -740 -46 -345 0 -448
7 -735 46 -769 106 -1535 396 -2175 822 -363 242 -783 609 -1004 877 -44 54
-40 51 20 -15 435 -479 943 -867 1501 -1146 168 -84 238 -109 206 -75 -7 8
-17 11 -22 8 -5 -3 -6 0 -3 5 4 6 0 16 -8 23 -8 7 -12 16 -9 21 3 5 0 9 -6 9
-6 0 -8 5 -5 10 3 6 1 10 -4 10 -6 0 -11 5 -11 11 0 5 5 7 11 3 7 -4 7 1 -1
16 -8 15 -8 20 -1 16 6 -4 11 0 11 9 0 9 4 14 9 10 5 -3 13 0 17 6 4 8 3 9 -4
5 -19 -11 -14 6 7 28 24 26 18 73 -11 82 -11 3 -17 8 -15 11 3 2 32 -9 66 -26
33 -17 64 -31 68 -31 4 0 -73 42 -172 94 -475 245 -835 506 -1196 866 -245
244 -404 433 -565 675 -67 100 -83 126 -67 110 6 -5 33 -44 61 -85z m1337 70
c10 -11 16 -20 13 -20 -3 0 -13 9 -23 20 -10 11 -16 20 -13 20 3 0 13 -9 23
-20z m1850 -38 c-15 -27 -47 -72 -71 -98 l-45 -49 46 59 c26 32 56 78 68 102
11 24 23 42 25 39 2 -2 -8 -26 -23 -53z m-1775 -19 c0 -7 -39 17 -46 28 -3 6
5 3 20 -6 14 -10 26 -19 26 -22z m76 -41 c-5 -4 -66 26 -66 33 0 3 16 -3 35
-12 19 -9 33 -18 31 -21z m2974 8 c0 -5 -5 -10 -11 -10 -5 0 -7 5 -4 10 3 6 8
10 11 10 2 0 4 -4 4 -10z m-4696 -155 c47 -71 75 -116 61 -100 -24 28 -141
201 -160 235 -21 39 19 -16 99 -135z m4734 111 c0 -19 -3 -22 -13 -13 -7 7 -9
14 -4 15 5 2 7 8 3 13 -3 5 -1 9 4 9 5 0 10 -11 10 -24z m-2248 -200 c25 -21
36 -33 25 -25 -50 34 -128 105 -147 133 -13 20 -4 14 28 -19 27 -28 69 -68 94
-89z m110 -72 c0 -2 -13 2 -30 11 -16 9 -30 18 -30 21 0 2 14 -2 30 -11 17 -9
30 -18 30 -21z m-2371 -142 c46 -58 79 -102 73 -98 -12 7 -146 173 -186 231
l-28 40 29 -34 c15 -19 66 -82 112 -139z m2486 98 c13 -6 15 -9 5 -9 -8 0 -22
4 -30 9 -18 12 -2 12 25 0z m52 -16 c-3 -3 -12 -4 -19 -1 -8 3 -5 6 6 6 11 1
17 -2 13 -5z m46 -11 c-7 -2 -19 -2 -25 0 -7 3 -2 5 12 5 14 0 19 -2 13 -5z
m2685 -335 l-1 -333 -11 306 -11 306 -95 -55 c-52 -30 -185 -103 -295 -163
l-200 -108 -5 -198 -6 -198 -2 215 -2 215 53 25 c52 25 369 201 502 278 39 23
71 41 73 41 1 1 1 -149 0 -331z m-1798 137 c0 -6 -122 -77 -126 -72 -2 1 25
19 59 40 68 39 67 39 67 32z m-140 -80 c0 -2 -10 -9 -22 -15 -22 -11 -22 -10
-4 4 21 17 26 19 26 11z m870 -363 c0 -5 -19 -17 -42 -27 -24 -10 -70 -30
-103 -46 -34 -15 -74 -31 -90 -35 -17 -4 -97 -31 -179 -61 -81 -30 -150 -52
-152 -50 -2 2 96 41 219 87 122 46 249 96 282 112 70 32 65 30 65 20z m-617
-239 c-7 -2 -14 -19 -14 -36 -1 -25 -3 -27 -6 -9 -6 30 3 52 19 51 10 0 10 -2
1 -6z m-1819 -291 c3 -5 -1 -9 -9 -9 -8 0 -15 4 -15 9 0 4 4 8 9 8 6 0 12 -4
15 -8z m24 -26 c-7 -8 -15 -12 -17 -11 -5 6 10 25 20 25 5 0 4 -6 -3 -14z m48
-55 c-4 -5 -1 -11 5 -13 7 -2 4 -10 -7 -18 -11 -9 -15 -10 -10 -2 4 6 3 12 -2
12 -5 0 -9 7 -9 15 0 8 7 15 14 15 8 0 12 -4 9 -9z"/>
<path d="M2891 6324 c0 -11 3 -14 6 -6 3 7 2 16 -1 19 -3 4 -6 -2 -5 -13z"/>
<path d="M2901 6284 c0 -11 3 -14 6 -6 3 7 2 16 -1 19 -3 4 -6 -2 -5 -13z"/>
<path d="M2911 6244 c0 -11 3 -14 6 -6 3 7 2 16 -1 19 -3 4 -6 -2 -5 -13z"/>
<path d="M6764 9576 c-27 -27 -34 -42 -34 -73 0 -47 22 -81 64 -98 68 -29 136
20 136 98 -1 97 -99 140 -166 73z"/>
<path d="M7045 4044 c-73 -55 -83 -64 -67 -64 6 0 17 6 24 13 7 8 21 12 32 9
12 -3 17 -1 12 6 -3 6 11 27 31 46 51 48 40 45 -32 -10z"/>
<path d="M7100 3989 c0 -5 5 -7 10 -4 6 3 10 8 10 11 0 2 -4 4 -10 4 -5 0 -10
-5 -10 -11z"/>
<path d="M7117 3943 c-10 -9 -9 -23 1 -23 5 0 9 7 9 15 0 17 -1 18 -10 8z"/>
<path d="M7563 9035 c-33 -14 -63 -59 -63 -95 0 -67 72 -121 136 -100 95 32
99 158 7 196 -39 17 -40 17 -80 -1z"/>
<path d="M7034 8029 c-28 -14 -54 -61 -54 -97 0 -38 41 -88 79 -97 46 -10 99
18 117 61 20 47 11 87 -28 119 -31 26 -76 32 -114 14z"/>
<path d="M8321 7664 c-75 -63 -27 -184 73 -184 36 0 84 45 92 86 18 99 -88
163 -165 98z"/>
<path d="M8605 6911 c-34 -15 -56 -47 -62 -90 -5 -36 -2 -44 30 -76 37 -37 74
-45 120 -24 31 14 57 59 57 98 0 63 -86 118 -145 92z"/>
<path d="M7912 6235 c-26 -19 -52 -66 -52 -95 0 -37 30 -81 65 -96 68 -28 145
28 145 105 0 70 -102 126 -158 86z"/>
<path d="M6802 5080 c0 -14 2 -19 5 -12 2 6 2 18 0 25 -3 6 -5 1 -5 -13z"/>
<path d="M6720 5042 c0 -22 5 -32 16 -32 11 0 14 6 9 23 -12 38 -25 43 -25 9z"/>
<path d="M6671 4963 c-27 -34 -35 -64 -27 -106 10 -52 68 -97 123 -97 31 1 90
29 61 30 -9 0 -19 8 -22 18 -8 25 -92 24 -90 -1 1 -9 -4 -17 -12 -17 -8 0 -14
5 -14 10 0 6 0 13 0 18 0 4 5 7 10 7 11 0 12 8 4 30 -4 8 -4 29 -2 45 3 22 1
27 -7 20 -27 -22 -34 23 -8 52 9 10 13 18 10 18 -3 0 -15 -12 -26 -27z"/>
<path d="M6857 4953 c14 -22 14 -25 2 -16 -8 7 -24 11 -35 11 -21 -2 -21 -2
-1 -35 23 -40 30 -41 46 -7 10 22 9 31 -4 50 -8 13 -18 24 -20 24 -3 0 2 -12
12 -27z"/>
<path d="M6727 4922 c-22 -24 -21 -55 1 -75 25 -23 48 -21 73 4 22 22 19 55
-9 77 -22 17 -46 15 -65 -6z"/>
<path d="M4743 5453 c15 -2 39 -2 55 0 15 2 2 4 -28 4 -30 0 -43 -2 -27 -4z"/>
<path d="M5441 5094 c0 -11 3 -14 6 -6 3 7 2 16 -1 19 -3 4 -6 -2 -5 -13z"/>
<path d="M7415 5436 c-94 -41 -80 -183 19 -202 61 -11 126 44 126 106 0 37
-30 81 -65 96 -41 17 -42 17 -80 0z"/>
<path d="M4510 2308 c0 -6 3 -8 6 -5 4 3 16 2 28 -4 20 -10 20 -10 2 5 -24 19
-36 20 -36 4z"/>
</g>
</svg>
